<?xml version="1.0" standalone="no"?>
<!DOCTYPE svg PUBLIC "-//W3C//DTD SVG 20010904//EN"
 "http://www.w3.org/TR/2001/REC-SVG-20010904/DTD/svg10.dtd">
<svg version="1.0" xmlns="http://www.w3.org/2000/svg"
 width="615.000000pt" height="406.000000pt" viewBox="0 0 615.000000 406.000000"
 preserveAspectRatio="xMidYMid meet">

<g transform="translate(0.000000,406.000000) scale(0.100000,-0.100000)"
fill="#000000" stroke="none">
<path d="M1635 2643 c-155 -15 -267 -67 -374 -173 -127 -126 -191 -263 -191
-410 0 -128 50 -287 116 -366 16 -20 13 -10 -11 30 -112 190 -122 382 -30 571
102 210 296 330 535 328 135 0 235 -31 336 -102 162 -113 241 -257 254 -461
l7 -105 1 84 c5 231 -124 441 -330 540 -97 46 -223 72 -313 64z"/>
<path d="M1274 2408 l-29 -33 33 29 c17 17 32 31 32 33 0 8 -8 1 -36 -29z"/>
<path d="M1595 2374 c-122 -39 -219 -153 -240 -281 -6 -39 -9 -43 -36 -43 -16
0 -29 -4 -29 -10 0 -5 13 -10 30 -10 26 0 30 -4 35 -37 22 -129 89 -220 201
-273 54 -26 77 -31 143 -32 106 -1 169 22 244 91 66 62 96 112 112 191 11 52
13 55 43 58 43 4 41 22 -2 22 -32 0 -34 1 -40 48 -14 105 -96 211 -203 262
-63 30 -186 37 -258 14z m232 -25 c34 -13 77 -40 105 -67 54 -51 108 -149 108
-199 l0 -33 -336 0 -336 0 7 43 c9 56 26 93 64 145 34 46 118 105 172 120 61
18 154 14 216 -9z m211 -363 c-12 -100 -88 -200 -192 -251 -125 -61 -283 -29
-382 77 -50 53 -78 109 -89 176 l-7 42 337 0 338 0 -5 -44z"/>
<path d="M1229 2353 c-13 -16 -12 -17 4 -4 9 7 17 15 17 17 0 8 -8 3 -21 -13z"/>
<path d="M1179 2265 c-43 -92 -59 -158 -59 -251 0 -94 26 -208 66 -286 16 -29
27 -58 26 -64 -6 -29 171 -164 271 -208 139 -62 319 -64 466 -6 154 60 298
209 350 360 11 33 15 60 10 60 -5 0 -9 -8 -9 -19 0 -10 -19 -56 -42 -102 -73
-146 -207 -256 -373 -305 -41 -12 -93 -18 -165 -18 -107 0 -165 14 -286 70
-62 28 -204 178 -241 254 -34 72 -63 193 -63 267 0 71 26 178 59 250 17 34 28
63 25 63 -3 0 -19 -29 -35 -65z"/>
<path d="M2617 2217 l-22 -17 24 -20 c20 -17 38 -20 137 -20 101 0 116 -2 134
-20 22 -22 25 -37 10 -60 -7 -11 -37 -16 -122 -21 -120 -6 -145 -14 -171 -58
-32 -57 -23 -151 14 -151 13 0 39 63 39 94 0 37 27 46 140 46 l102 0 34 34
c28 28 34 42 34 76 0 50 -23 94 -59 111 -14 7 -81 15 -149 18 -107 5 -125 4
-145 -12z"/>
<path d="M3320 2222 c0 -34 65 -83 161 -121 88 -35 94 -39 94 -66 0 -26 -6
-31 -60 -52 -150 -59 -195 -89 -195 -134 0 -27 45 -25 80 4 15 13 66 39 114
57 105 41 131 66 131 125 0 59 -26 84 -130 124 -47 18 -98 43 -114 57 -35 29
-81 33 -81 6z"/>
<path d="M4045 2220 c-9 -10 -60 -36 -112 -57 -104 -41 -143 -75 -143 -124 0
-34 16 -68 39 -86 9 -7 54 -26 100 -44 47 -18 95 -43 108 -55 28 -28 83 -33
83 -9 0 35 -65 85 -160 123 -90 35 -95 39 -95 66 0 28 5 32 95 67 95 38 160
88 160 124 0 22 -53 19 -75 -5z"/>
<path d="M4580 2228 c0 -2 -1 -52 -3 -113 -3 -128 -18 -168 -72 -191 -56 -23
-91 -18 -133 20 l-37 34 -6 102 c-5 84 -9 105 -26 122 l-21 20 -15 -23 c-11
-19 -13 -46 -8 -130 6 -95 10 -110 34 -142 43 -57 90 -80 158 -80 40 1 70 7
93 21 l34 20 20 -20 20 -20 14 23 c10 19 13 62 10 192 l-3 167 -30 0 c-16 0
-29 -1 -29 -2z"/>
<path d="M5067 2215 c-54 -18 -63 -28 -143 -151 -64 -99 -105 -146 -135 -156
-6 -2 -9 -18 -7 -35 l3 -31 40 13 c48 17 85 57 153 168 47 77 93 129 122 139
7 2 10 18 8 35 l-3 31 -38 -13z"/>
<path d="M3125 2190 c-12 -24 -15 -61 -13 -187 l3 -158 32 -3 32 -3 3 168 c2
129 0 173 -11 191 -18 29 -27 28 -46 -8z"/>
<path d="M2322 2060 c0 -14 2 -19 5 -12 2 6 2 18 0 25 -3 6 -5 1 -5 -13z"/>
<path d="M4029 2059 c-17 -33 3 -69 39 -69 33 0 52 16 52 45 0 29 -19 45 -52
45 -18 0 -31 -7 -39 -21z"/>
<path d="M2322 1955 c0 -16 2 -22 5 -12 2 9 2 23 0 30 -3 6 -5 -1 -5 -18z"/>
<path d="M2311 1894 c0 -11 3 -14 6 -6 3 7 2 16 -1 19 -3 4 -6 -2 -5 -13z"/>
</g>
</svg>
